<?xml version="1.0" encoding="iso-8859-1"?>
<!-- Generator: Adobe Illustrator 18.1.0, SVG Export Plug-In . SVG Version: 6.00 Build 0)  -->
<svg version="1.1" xmlns="http://www.w3.org/2000/svg" xmlns:xlink="http://www.w3.org/1999/xlink" x="0px" y="0px"
	 viewBox="0 0 64 40.329" style="enable-background:new 0 0 64 40.329;" xml:space="preserve">
<g id="Camera">
	<rect y="0" style="fill:#D1D3D4;" width="64" height="40.329"/>
	<rect y="11.082" style="fill:#6D6E71;" width="64" height="17.146"/>
	<circle style="fill:#E64C3C;" cx="4.535" cy="4.869" r="1.867"/>
	<circle style="fill:#58595B;" cx="32" cy="20.436" r="14.695"/>
	<path style="fill:#F1F2F2;" d="M32,37.366c-9.335,0-16.93-7.595-16.93-16.931S22.665,3.506,32,3.506
		c9.336,0,16.93,7.594,16.93,16.929S41.336,37.366,32,37.366z M32,7.975c-6.871,0-12.46,5.589-12.46,12.46S25.129,32.897,32,32.897
		s12.461-5.591,12.461-12.462S38.871,7.975,32,7.975z"/>
	<rect x="49.434" y="3.077" style="fill:#E6E7E8;" width="11.471" height="4.808"/>
	<circle style="fill:#6D6E71;" cx="34.662" cy="17.497" r="2.662"/>
</g>
<g id="Layer_1">
</g>
</svg>
