<?xml version="1.0" encoding="iso-8859-1"?>
<!-- Generator: Adobe Illustrator 18.1.0, SVG Export Plug-In . SVG Version: 6.00 Build 0)  -->
<svg version="1.1" xmlns="http://www.w3.org/2000/svg" xmlns:xlink="http://www.w3.org/1999/xlink" x="0px" y="0px"
	 viewBox="0 0 64 64" style="enable-background:new 0 0 64 64;" xml:space="preserve">
<g id="Profile">
	<ellipse style="fill:#3B97D3;" cx="31.538" cy="27.301" rx="11.571" ry="11.613"/>
	<path style="fill:#3B97D3;" d="M32,0C14.354,0,0,14.407,0,32.117c0,11.587,6.146,21.759,15.337,27.408v0.001
		c3.831,2.355,8.193,3.917,12.858,4.474h7.608c4.666-0.557,9.028-2.119,12.859-4.474v-1.515v-0.955v-3.251
		c-0.119,0.092-0.247,0.172-0.367,0.262c-1.341-5.567-6.324-9.707-12.284-9.707h-8.023c-5.959,0-10.943,4.141-12.285,9.707
		c-0.12-0.09-0.248-0.17-0.367-0.262v-0.001C8.872,48.788,4.696,40.935,4.696,32.117C4.696,17.007,16.945,4.713,32,4.713
		c15.056,0,27.305,12.293,27.305,27.404c0,8.818-4.175,16.671-10.641,21.687v5.721C57.854,53.876,64,43.704,64,32.117
		C64,14.407,49.645,0,32,0z"/>
</g>
<g id="Layer_1">
</g>
</svg>
