<?xml version="1.0" encoding="iso-8859-1"?>
<!-- Generator: Adobe Illustrator 18.1.0, SVG Export Plug-In . SVG Version: 6.00 Build 0)  -->
<svg version="1.1" xmlns="http://www.w3.org/2000/svg" xmlns:xlink="http://www.w3.org/1999/xlink" x="0px" y="0px"
	 viewBox="0 0 64 51.236" style="enable-background:new 0 0 64 51.236;" xml:space="preserve">
<g id="Shopping_Cart">
	<polygon style="fill:#939598;" points="47.18,6.442 30.359,6.442 12.104,6.442 12.964,10.747 29.5,10.747 46.32,10.747 
		63.141,10.747 64,6.442 	"/>
	<polygon style="fill:#939598;" points="25.479,30.889 17.702,30.889 18.561,35.191 24.619,35.191 41.44,35.191 58.261,35.191 
		59.12,30.889 42.3,30.889 	"/>
	<polygon style="fill:#5CC8DA;" points="46.32,10.747 29.5,10.747 12.964,10.747 17.702,30.889 25.479,30.889 42.3,30.889 
		59.12,30.889 63.141,10.747 	"/>
	<path style="fill:#D1D3D4;" d="M56.586,44.207H19.972c-0.735,0-1.373-0.506-1.54-1.223L9.174,3.162H1.581
		C0.708,3.162,0,2.455,0,1.581S0.708,0,1.581,0h8.848c0.735,0,1.373,0.506,1.54,1.223l9.258,39.822h35.359
		c0.873,0,1.581,0.707,1.581,1.581C58.167,43.5,57.459,44.207,56.586,44.207z"/>
	<circle style="fill:#A7A9AC;" cx="17.702" cy="45.496" r="5.74"/>
	<circle style="fill:#A7A9AC;" cx="54.173" cy="45.496" r="5.74"/>
</g>
<g id="Layer_1">
</g>
</svg>
